<svg width="463" height="35" viewBox="0 0 463 35" fill="none" xmlns="http://www.w3.org/2000/svg">
<g style="mix-blend-mode:darken">
<path d="M21.2412 16.4463C24.3825 17.1787 26.5879 18.0658 27.8574 19.1074C29.6803 20.5885 30.5918 22.5091 30.5918 24.8691C30.5918 27.3594 29.5908 29.4183 27.5889 31.0459C25.1312 33.0153 21.5586 34 16.8711 34H0.0498047V33.0967C1.57975 33.0967 2.61328 32.9583 3.15039 32.6816C3.70378 32.3887 4.08626 32.0143 4.29785 31.5586C4.52572 31.1029 4.63965 29.9798 4.63965 28.1895V6.70508C4.63965 4.91471 4.52572 3.79167 4.29785 3.33594C4.08626 2.86393 3.70378 2.48958 3.15039 2.21289C2.59701 1.9362 1.56348 1.79785 0.0498047 1.79785V0.894531H15.9189C19.7113 0.894531 22.3968 1.23633 23.9756 1.91992C25.5544 2.58724 26.7995 3.59635 27.7109 4.94727C28.6224 6.2819 29.0781 7.70605 29.0781 9.21973C29.0781 10.8148 28.5003 12.2389 27.3447 13.4922C26.1891 14.7292 24.1546 15.7139 21.2412 16.4463ZM12.3545 15.7871C14.6657 15.7871 16.3665 15.5267 17.457 15.0059C18.5638 14.485 19.4102 13.7526 19.9961 12.8086C20.582 11.8646 20.875 10.6602 20.875 9.19531C20.875 7.73047 20.582 6.53418 19.9961 5.60645C19.4264 4.66243 18.6045 3.94629 17.5303 3.45801C16.4561 2.96973 14.7308 2.73372 12.3545 2.75V15.7871ZM12.3545 17.6914V28.3115L12.3301 29.5322C12.3301 30.4111 12.5498 31.0785 12.9893 31.5342C13.445 31.9736 14.1123 32.1934 14.9912 32.1934C16.2933 32.1934 17.4896 31.9085 18.5801 31.3389C19.6868 30.7529 20.5332 29.9147 21.1191 28.8242C21.7051 27.7174 21.998 26.4886 21.998 25.1377C21.998 23.5915 21.64 22.208 20.9238 20.9873C20.2077 19.7503 19.223 18.8877 17.9697 18.3994C16.7165 17.9111 14.8447 17.6751 12.3545 17.6914ZM53.1504 24.5762H41.4561L40.0645 27.7988C39.6087 28.873 39.3809 29.7601 39.3809 30.46C39.3809 31.3877 39.7552 32.0713 40.5039 32.5107C40.9434 32.7712 42.0257 32.9665 43.751 33.0967V34H32.7402V33.0967C33.9284 32.9176 34.9049 32.4294 35.6699 31.6318C36.4349 30.818 37.3789 29.1497 38.502 26.627L50.3428 0.210938H50.8066L62.7451 27.3594C63.8844 29.931 64.8203 31.5505 65.5527 32.2178C66.1061 32.7223 66.8874 33.0153 67.8965 33.0967V34H51.8809V33.0967H52.54C53.8258 33.0967 54.7292 32.9176 55.25 32.5596C55.6081 32.2992 55.7871 31.9248 55.7871 31.4365C55.7871 31.1436 55.7383 30.8424 55.6406 30.5332C55.6081 30.3867 55.3639 29.7764 54.9082 28.7021L53.1504 24.5762ZM52.3203 22.7695L47.3887 11.3682L42.3105 22.7695H52.3203ZM82.1543 18.082V28.3359C82.1543 30.0286 82.2438 31.0866 82.4229 31.5098C82.6182 31.9329 82.9844 32.3073 83.5215 32.6328C84.0749 32.9421 84.8154 33.0967 85.7432 33.0967H86.8418V34H69.5322V33.0967H70.6309C71.5911 33.0967 72.3643 32.9258 72.9502 32.584C73.3734 32.3561 73.6989 31.9655 73.9268 31.4121C74.1058 31.0215 74.1953 29.9961 74.1953 28.3359V6.55859C74.1953 4.86589 74.1058 3.80794 73.9268 3.38477C73.7477 2.96159 73.3815 2.59538 72.8281 2.28613C72.291 1.96061 71.5586 1.79785 70.6309 1.79785H69.5322V0.894531H86.8418V1.79785H85.7432C84.7829 1.79785 84.0098 1.96875 83.4238 2.31055C83.0007 2.53841 82.667 2.92904 82.4229 3.48242C82.2438 3.87305 82.1543 4.89844 82.1543 6.55859V15.9336H93.8486V6.55859C93.8486 4.86589 93.7591 3.80794 93.5801 3.38477C93.401 2.96159 93.0348 2.59538 92.4814 2.28613C91.9281 1.96061 91.1875 1.79785 90.2598 1.79785H89.1855V0.894531H106.471V1.79785H105.396C104.42 1.79785 103.647 1.96875 103.077 2.31055C102.654 2.53841 102.32 2.92904 102.076 3.48242C101.897 3.87305 101.808 4.89844 101.808 6.55859V28.3359C101.808 30.0286 101.897 31.0866 102.076 31.5098C102.255 31.9329 102.621 32.3073 103.175 32.6328C103.728 32.9421 104.469 33.0967 105.396 33.0967H106.471V34H89.1855V33.0967H90.2598C91.2363 33.0967 92.0094 32.9258 92.5791 32.584C93.0023 32.3561 93.3359 31.9655 93.5801 31.4121C93.7591 31.0215 93.8486 29.9961 93.8486 28.3359V18.082H82.1543ZM125.709 33.0967V34H108.399V33.0967H109.498C110.458 33.0967 111.231 32.9258 111.817 32.584C112.241 32.3561 112.566 31.9655 112.794 31.4121C112.973 31.0215 113.062 29.9961 113.062 28.3359V6.55859C113.062 4.86589 112.973 3.80794 112.794 3.38477C112.615 2.96159 112.249 2.59538 111.695 2.28613C111.158 1.96061 110.426 1.79785 109.498 1.79785H108.399V0.894531H125.709V1.79785H124.61C123.65 1.79785 122.877 1.96875 122.291 2.31055C121.868 2.53841 121.534 2.92904 121.29 3.48242C121.111 3.87305 121.021 4.89844 121.021 6.55859V28.3359C121.021 30.0286 121.111 31.0866 121.29 31.5098C121.485 31.9329 121.852 32.3073 122.389 32.6328C122.942 32.9421 123.683 33.0967 124.61 33.0967H125.709ZM147.682 24.5762H135.987L134.596 27.7988C134.14 28.873 133.912 29.7601 133.912 30.46C133.912 31.3877 134.286 32.0713 135.035 32.5107C135.475 32.7712 136.557 32.9665 138.282 33.0967V34H127.271V33.0967C128.46 32.9176 129.436 32.4294 130.201 31.6318C130.966 30.818 131.91 29.1497 133.033 26.627L144.874 0.210938H145.338L157.276 27.3594C158.416 29.931 159.352 31.5505 160.084 32.2178C160.637 32.7223 161.419 33.0153 162.428 33.0967V34H146.412V33.0967H147.071C148.357 33.0967 149.26 32.9176 149.781 32.5596C150.139 32.2992 150.318 31.9248 150.318 31.4365C150.318 31.1436 150.27 30.8424 150.172 30.5332C150.139 30.3867 149.895 29.7764 149.439 28.7021L147.682 24.5762ZM146.852 22.7695L141.92 11.3682L136.842 22.7695H146.852ZM196.217 0.137695L196.485 11.1729H195.484C195.012 8.40592 193.849 6.18424 191.993 4.50781C190.154 2.8151 188.16 1.96875 186.012 1.96875C184.352 1.96875 183.033 2.41634 182.057 3.31152C181.096 4.19043 180.616 5.20768 180.616 6.36328C180.616 7.0957 180.787 7.74674 181.129 8.31641C181.601 9.08138 182.358 9.83822 183.399 10.5869C184.164 11.124 185.93 12.0762 188.697 13.4434C192.571 15.3477 195.183 17.1462 196.534 18.8389C197.869 20.5316 198.536 22.4684 198.536 24.6494C198.536 27.4163 197.454 29.8008 195.289 31.8027C193.141 33.7884 190.406 34.7812 187.086 34.7812C186.044 34.7812 185.06 34.6755 184.132 34.4639C183.204 34.2523 182.04 33.8535 180.641 33.2676C179.859 32.9421 179.216 32.7793 178.712 32.7793C178.289 32.7793 177.841 32.9421 177.369 33.2676C176.897 33.5931 176.515 34.0895 176.222 34.7568H175.318V22.2568H176.222C176.938 25.7725 178.313 28.458 180.348 30.3135C182.398 32.1527 184.604 33.0723 186.964 33.0723C188.787 33.0723 190.235 32.5758 191.31 31.583C192.4 30.5902 192.945 29.4346 192.945 28.1162C192.945 27.335 192.734 26.5781 192.311 25.8457C191.904 25.1133 191.277 24.4215 190.431 23.7705C189.584 23.1032 188.087 22.2406 185.938 21.1826C182.927 19.7015 180.763 18.4401 179.444 17.3984C178.126 16.3568 177.109 15.193 176.393 13.9072C175.693 12.6214 175.343 11.2054 175.343 9.65918C175.343 7.02246 176.311 4.77637 178.248 2.9209C180.185 1.06543 182.626 0.137695 185.572 0.137695C186.646 0.137695 187.688 0.267904 188.697 0.52832C189.462 0.723633 190.39 1.08984 191.48 1.62695C192.587 2.14779 193.36 2.4082 193.8 2.4082C194.223 2.4082 194.557 2.27799 194.801 2.01758C195.045 1.75716 195.273 1.13053 195.484 0.137695H196.217ZM219.874 0.430664C225.147 0.235352 229.428 1.77344 232.716 5.04492C236.02 8.31641 237.672 12.4098 237.672 17.3252C237.672 21.5244 236.443 25.2191 233.985 28.4092C230.73 32.641 226.132 34.7568 220.191 34.7568C214.234 34.7568 209.628 32.7386 206.373 28.7021C203.801 25.512 202.516 21.7279 202.516 17.3496C202.516 12.4342 204.184 8.34082 207.521 5.06934C210.873 1.78158 214.991 0.235352 219.874 0.430664ZM220.167 1.99316C217.14 1.99316 214.837 3.53939 213.258 6.63184C211.972 9.1709 211.329 12.8167 211.329 17.5693C211.329 23.2171 212.322 27.3919 214.308 30.0938C215.691 31.9818 217.628 32.9258 220.118 32.9258C221.795 32.9258 223.194 32.5189 224.317 31.7051C225.75 30.6634 226.865 29.0033 227.662 26.7246C228.46 24.4297 228.858 21.443 228.858 17.7646C228.858 13.3864 228.451 10.1149 227.638 7.9502C226.824 5.76921 225.782 4.23112 224.513 3.33594C223.259 2.44076 221.811 1.99316 220.167 1.99316ZM271.046 22.3789L269.801 34H240.406V33.0967H241.505C242.465 33.0967 243.238 32.9258 243.824 32.584C244.247 32.3561 244.573 31.9655 244.801 31.4121C244.98 31.0215 245.069 29.9961 245.069 28.3359V6.55859C245.069 4.86589 244.98 3.80794 244.801 3.38477C244.622 2.96159 244.256 2.59538 243.702 2.28613C243.165 1.96061 242.433 1.79785 241.505 1.79785H240.406V0.894531H258.058V1.79785H256.617C255.657 1.79785 254.884 1.96875 254.298 2.31055C253.875 2.53841 253.541 2.92904 253.297 3.48242C253.118 3.87305 253.028 4.89844 253.028 6.55859V27.6523C253.028 29.3451 253.126 30.4274 253.321 30.8994C253.517 31.3551 253.899 31.6969 254.469 31.9248C254.876 32.0713 255.86 32.1445 257.423 32.1445H260.182C261.939 32.1445 263.404 31.8353 264.576 31.2168C265.748 30.5983 266.757 29.6217 267.604 28.2871C268.466 26.9525 269.28 24.9831 270.045 22.3789H271.046ZM274 0.894531H291.09V1.79785H290.235C288.95 1.79785 288.062 1.9362 287.574 2.21289C287.102 2.47331 286.76 2.83952 286.549 3.31152C286.354 3.78353 286.256 4.96354 286.256 6.85156V23.0625C286.256 26.0247 286.476 27.986 286.915 28.9463C287.371 29.9066 288.111 30.7041 289.137 31.3389C290.162 31.9736 291.456 32.291 293.019 32.291C294.809 32.291 296.331 31.8923 297.584 31.0947C298.854 30.2809 299.798 29.166 300.416 27.75C301.051 26.334 301.368 23.8682 301.368 20.3525V6.85156C301.368 5.37044 301.214 4.3125 300.904 3.67773C300.595 3.04297 300.204 2.60352 299.732 2.35938C299 1.98503 297.966 1.79785 296.632 1.79785V0.894531H308.082V1.79785H307.398C306.471 1.79785 305.698 1.98503 305.079 2.35938C304.461 2.73372 304.013 3.29525 303.736 4.04395C303.525 4.56478 303.419 5.50065 303.419 6.85156V19.4248C303.419 23.3148 303.159 26.1224 302.638 27.8477C302.133 29.5729 300.888 31.1598 298.902 32.6084C296.917 34.057 294.207 34.7812 290.772 34.7812C287.908 34.7812 285.694 34.3988 284.132 33.6338C282 32.5921 280.494 31.2575 279.615 29.6299C278.736 28.0023 278.297 25.8132 278.297 23.0625V6.85156C278.297 4.94727 278.191 3.76725 277.979 3.31152C277.768 2.83952 277.402 2.46517 276.881 2.18848C276.36 1.91178 275.4 1.78158 274 1.79785V0.894531ZM340.504 0.894531V9.85449H339.625C339.104 7.78743 338.526 6.30632 337.892 5.41113C337.257 4.49967 336.386 3.77539 335.279 3.23828C334.661 2.94531 333.578 2.79883 332.032 2.79883H329.566V28.3359C329.566 30.0286 329.656 31.0866 329.835 31.5098C330.03 31.9329 330.396 32.3073 330.934 32.6328C331.487 32.9421 332.236 33.0967 333.18 33.0967H334.278V34H316.944V33.0967H318.043C319.003 33.0967 319.776 32.9258 320.362 32.584C320.785 32.3561 321.119 31.9655 321.363 31.4121C321.542 31.0215 321.632 29.9961 321.632 28.3359V2.79883H319.239C317.009 2.79883 315.39 3.27083 314.381 4.21484C312.965 5.5332 312.07 7.41309 311.695 9.85449H310.768V0.894531H340.504ZM360.621 33.0967V34H343.312V33.0967H344.41C345.37 33.0967 346.144 32.9258 346.729 32.584C347.153 32.3561 347.478 31.9655 347.706 31.4121C347.885 31.0215 347.975 29.9961 347.975 28.3359V6.55859C347.975 4.86589 347.885 3.80794 347.706 3.38477C347.527 2.96159 347.161 2.59538 346.607 2.28613C346.07 1.96061 345.338 1.79785 344.41 1.79785H343.312V0.894531H360.621V1.79785H359.522C358.562 1.79785 357.789 1.96875 357.203 2.31055C356.78 2.53841 356.446 2.92904 356.202 3.48242C356.023 3.87305 355.934 4.89844 355.934 6.55859V28.3359C355.934 30.0286 356.023 31.0866 356.202 31.5098C356.397 31.9329 356.764 32.3073 357.301 32.6328C357.854 32.9421 358.595 33.0967 359.522 33.0967H360.621ZM381.104 0.430664C386.378 0.235352 390.659 1.77344 393.946 5.04492C397.25 8.31641 398.902 12.4098 398.902 17.3252C398.902 21.5244 397.674 25.2191 395.216 28.4092C391.961 32.641 387.363 34.7568 381.422 34.7568C375.465 34.7568 370.859 32.7386 367.604 28.7021C365.032 25.512 363.746 21.7279 363.746 17.3496C363.746 12.4342 365.414 8.34082 368.751 5.06934C372.104 1.78158 376.222 0.235352 381.104 0.430664ZM381.397 1.99316C378.37 1.99316 376.067 3.53939 374.488 6.63184C373.202 9.1709 372.56 12.8167 372.56 17.5693C372.56 23.2171 373.552 27.3919 375.538 30.0938C376.922 31.9818 378.858 32.9258 381.349 32.9258C383.025 32.9258 384.425 32.5189 385.548 31.7051C386.98 30.6634 388.095 29.0033 388.893 26.7246C389.69 24.4297 390.089 21.443 390.089 17.7646C390.089 13.3864 389.682 10.1149 388.868 7.9502C388.054 5.76921 387.013 4.23112 385.743 3.33594C384.49 2.44076 383.041 1.99316 381.397 1.99316ZM413.16 0.894531L429.493 21.4268V7.19336C429.493 5.20768 429.208 3.86491 428.639 3.16504C427.857 2.22103 426.547 1.7653 424.708 1.79785V0.894531H435.646V1.79785C434.246 1.97689 433.302 2.21289 432.813 2.50586C432.341 2.78255 431.967 3.24642 431.69 3.89746C431.43 4.53223 431.3 5.63086 431.3 7.19336V34.7568H430.47L408.082 7.19336V28.2383C408.082 30.1426 408.513 31.4284 409.376 32.0957C410.255 32.763 411.256 33.0967 412.379 33.0967H413.16V34H401.417V33.0967C403.24 33.0804 404.509 32.7061 405.226 31.9736C405.942 31.2412 406.3 29.9961 406.3 28.2383V4.87402L405.592 3.99512C404.892 3.11621 404.273 2.53841 403.736 2.26172C403.199 1.98503 402.426 1.8304 401.417 1.79785V0.894531H413.16ZM460.328 0.137695L460.597 11.1729H459.596C459.124 8.40592 457.96 6.18424 456.104 4.50781C454.265 2.8151 452.271 1.96875 450.123 1.96875C448.463 1.96875 447.145 2.41634 446.168 3.31152C445.208 4.19043 444.728 5.20768 444.728 6.36328C444.728 7.0957 444.898 7.74674 445.24 8.31641C445.712 9.08138 446.469 9.83822 447.511 10.5869C448.276 11.124 450.042 12.0762 452.809 13.4434C456.682 15.3477 459.295 17.1462 460.646 18.8389C461.98 20.5316 462.647 22.4684 462.647 24.6494C462.647 27.4163 461.565 29.8008 459.4 31.8027C457.252 33.7884 454.518 34.7812 451.197 34.7812C450.156 34.7812 449.171 34.6755 448.243 34.4639C447.315 34.2523 446.152 33.8535 444.752 33.2676C443.971 32.9421 443.328 32.7793 442.823 32.7793C442.4 32.7793 441.952 32.9421 441.48 33.2676C441.008 33.5931 440.626 34.0895 440.333 34.7568H439.43V22.2568H440.333C441.049 25.7725 442.424 28.458 444.459 30.3135C446.51 32.1527 448.715 33.0723 451.075 33.0723C452.898 33.0723 454.347 32.5758 455.421 31.583C456.511 30.5902 457.057 29.4346 457.057 28.1162C457.057 27.335 456.845 26.5781 456.422 25.8457C456.015 25.1133 455.388 24.4215 454.542 23.7705C453.696 23.1032 452.198 22.2406 450.05 21.1826C447.039 19.7015 444.874 18.4401 443.556 17.3984C442.237 16.3568 441.22 15.193 440.504 13.9072C439.804 12.6214 439.454 11.2054 439.454 9.65918C439.454 7.02246 440.423 4.77637 442.359 2.9209C444.296 1.06543 446.738 0.137695 449.684 0.137695C450.758 0.137695 451.799 0.267904 452.809 0.52832C453.574 0.723633 454.501 1.08984 455.592 1.62695C456.699 2.14779 457.472 2.4082 457.911 2.4082C458.334 2.4082 458.668 2.27799 458.912 2.01758C459.156 1.75716 459.384 1.13053 459.596 0.137695H460.328Z" fill="black"/>
</g>
</svg>
